<?xml version="1.0" encoding="utf-8" standalone="no"?>
<!DOCTYPE svg PUBLIC "-//W3C//DTD SVG 1.1//EN"
  "http://www.w3.org/Graphics/SVG/1.1/DTD/svg11.dtd">
<!-- Created with matplotlib (https://matplotlib.org/) -->
<svg height="329.76pt" version="1.1" viewBox="0 0 740.16 329.76" width="740.16pt" xmlns="http://www.w3.org/2000/svg" xmlns:xlink="http://www.w3.org/1999/xlink">
 <defs>
  <style type="text/css">
*{stroke-linecap:butt;stroke-linejoin:round;}
  </style>
 </defs>
 <g id="figure_1">
  <g id="patch_1">
   <path d="M 0 329.76 
L 740.16 329.76 
L 740.16 0 
L 0 0 
z
" style="fill:#ffffff;"/>
  </g>
  <g id="axes_1">
   <g id="patch_2">
    <path d="M 33.73 301.88 
L 721.395 301.88 
L 721.395 14.76 
L 33.73 14.76 
z
" style="fill:#ffffff;"/>
   </g>
   <g id="matplotlib.axis_1">
    <g id="xtick_1">
     <g id="line2d_1">
      <path clip-path="url(#pdba960257b)" d="M 91.61572 301.88 
L 91.61572 14.76 
" style="fill:none;stroke:#808080;stroke-linecap:square;stroke-width:0.8;"/>
     </g>
     <g id="line2d_2">
      <defs>
       <path d="M 0 0 
L 0 3.5 
" id="mdba809c35f" style="stroke:#000000;stroke-width:0.8;"/>
      </defs>
      <g>
       <use style="stroke:#000000;stroke-width:0.8;" x="91.61572" xlink:href="#mdba809c35f" y="301.88"/>
      </g>
     </g>
     <g id="text_1">
      <!-- 122.2 -->
      <defs>
       <path d="M 12.40625 8.296875 
L 28.515625 8.296875 
L 28.515625 63.921875 
L 10.984375 60.40625 
L 10.984375 69.390625 
L 28.421875 72.90625 
L 38.28125 72.90625 
L 38.28125 8.296875 
L 54.390625 8.296875 
L 54.390625 0 
L 12.40625 0 
z
" id="DejaVuSans-49"/>
       <path d="M 19.1875 8.296875 
L 53.609375 8.296875 
L 53.609375 0 
L 7.328125 0 
L 7.328125 8.296875 
Q 12.9375 14.109375 22.625 23.890625 
Q 32.328125 33.6875 34.8125 36.53125 
Q 39.546875 41.84375 41.421875 45.53125 
Q 43.3125 49.21875 43.3125 52.78125 
Q 43.3125 58.59375 39.234375 62.25 
Q 35.15625 65.921875 28.609375 65.921875 
Q 23.96875 65.921875 18.8125 64.3125 
Q 13.671875 62.703125 7.8125 59.421875 
L 7.8125 69.390625 
Q 13.765625 71.78125 18.9375 73 
Q 24.125 74.21875 28.421875 74.21875 
Q 39.75 74.21875 46.484375 68.546875 
Q 53.21875 62.890625 53.21875 53.421875 
Q 53.21875 48.921875 51.53125 44.890625 
Q 49.859375 40.875 45.40625 35.40625 
Q 44.1875 33.984375 37.640625 27.21875 
Q 31.109375 20.453125 19.1875 8.296875 
z
" id="DejaVuSans-50"/>
       <path d="M 10.6875 12.40625 
L 21 12.40625 
L 21 0 
L 10.6875 0 
z
" id="DejaVuSans-46"/>
      </defs>
      <g transform="translate(77.301657 316.478437)scale(0.1 -0.1)">
       <use xlink:href="#DejaVuSans-49"/>
       <use x="63.623047" xlink:href="#DejaVuSans-50"/>
       <use x="127.246094" xlink:href="#DejaVuSans-50"/>
       <use x="190.869141" xlink:href="#DejaVuSans-46"/>
       <use x="222.65625" xlink:href="#DejaVuSans-50"/>
      </g>
     </g>
    </g>
    <g id="xtick_2">
     <g id="line2d_3">
      <path clip-path="url(#pdba960257b)" d="M 229.14872 301.88 
L 229.14872 14.76 
" style="fill:none;stroke:#808080;stroke-linecap:square;stroke-width:0.8;"/>
     </g>
     <g id="line2d_4">
      <g>
       <use style="stroke:#000000;stroke-width:0.8;" x="229.14872" xlink:href="#mdba809c35f" y="301.88"/>
      </g>
     </g>
     <g id="text_2">
      <!-- 122.4 -->
      <defs>
       <path d="M 37.796875 64.3125 
L 12.890625 25.390625 
L 37.796875 25.390625 
z
M 35.203125 72.90625 
L 47.609375 72.90625 
L 47.609375 25.390625 
L 58.015625 25.390625 
L 58.015625 17.1875 
L 47.609375 17.1875 
L 47.609375 0 
L 37.796875 0 
L 37.796875 17.1875 
L 4.890625 17.1875 
L 4.890625 26.703125 
z
" id="DejaVuSans-52"/>
      </defs>
      <g transform="translate(214.834657 316.478437)scale(0.1 -0.1)">
       <use xlink:href="#DejaVuSans-49"/>
       <use x="63.623047" xlink:href="#DejaVuSans-50"/>
       <use x="127.246094" xlink:href="#DejaVuSans-50"/>
       <use x="190.869141" xlink:href="#DejaVuSans-46"/>
       <use x="222.65625" xlink:href="#DejaVuSans-52"/>
      </g>
     </g>
    </g>
    <g id="xtick_3">
     <g id="line2d_5">
      <path clip-path="url(#pdba960257b)" d="M 366.68172 301.88 
L 366.68172 14.76 
" style="fill:none;stroke:#808080;stroke-linecap:square;stroke-width:0.8;"/>
     </g>
     <g id="line2d_6">
      <g>
       <use style="stroke:#000000;stroke-width:0.8;" x="366.68172" xlink:href="#mdba809c35f" y="301.88"/>
      </g>
     </g>
     <g id="text_3">
      <!-- 122.6 -->
      <defs>
       <path d="M 33.015625 40.375 
Q 26.375 40.375 22.484375 35.828125 
Q 18.609375 31.296875 18.609375 23.390625 
Q 18.609375 15.53125 22.484375 10.953125 
Q 26.375 6.390625 33.015625 6.390625 
Q 39.65625 6.390625 43.53125 10.953125 
Q 47.40625 15.53125 47.40625 23.390625 
Q 47.40625 31.296875 43.53125 35.828125 
Q 39.65625 40.375 33.015625 40.375 
z
M 52.59375 71.296875 
L 52.59375 62.3125 
Q 48.875 64.0625 45.09375 64.984375 
Q 41.3125 65.921875 37.59375 65.921875 
Q 27.828125 65.921875 22.671875 59.328125 
Q 17.53125 52.734375 16.796875 39.40625 
Q 19.671875 43.65625 24.015625 45.921875 
Q 28.375 48.1875 33.59375 48.1875 
Q 44.578125 48.1875 50.953125 41.515625 
Q 57.328125 34.859375 57.328125 23.390625 
Q 57.328125 12.15625 50.6875 5.359375 
Q 44.046875 -1.421875 33.015625 -1.421875 
Q 20.359375 -1.421875 13.671875 8.265625 
Q 6.984375 17.96875 6.984375 36.375 
Q 6.984375 53.65625 15.1875 63.9375 
Q 23.390625 74.21875 37.203125 74.21875 
Q 40.921875 74.21875 44.703125 73.484375 
Q 48.484375 72.75 52.59375 71.296875 
z
" id="DejaVuSans-54"/>
      </defs>
      <g transform="translate(352.367657 316.478437)scale(0.1 -0.1)">
       <use xlink:href="#DejaVuSans-49"/>
       <use x="63.623047" xlink:href="#DejaVuSans-50"/>
       <use x="127.246094" xlink:href="#DejaVuSans-50"/>
       <use x="190.869141" xlink:href="#DejaVuSans-46"/>
       <use x="222.65625" xlink:href="#DejaVuSans-54"/>
      </g>
     </g>
    </g>
    <g id="xtick_4">
     <g id="line2d_7">
      <path clip-path="url(#pdba960257b)" d="M 504.21472 301.88 
L 504.21472 14.76 
" style="fill:none;stroke:#808080;stroke-linecap:square;stroke-width:0.8;"/>
     </g>
     <g id="line2d_8">
      <g>
       <use style="stroke:#000000;stroke-width:0.8;" x="504.21472" xlink:href="#mdba809c35f" y="301.88"/>
      </g>
     </g>
     <g id="text_4">
      <!-- 122.8 -->
      <defs>
       <path d="M 31.78125 34.625 
Q 24.75 34.625 20.71875 30.859375 
Q 16.703125 27.09375 16.703125 20.515625 
Q 16.703125 13.921875 20.71875 10.15625 
Q 24.75 6.390625 31.78125 6.390625 
Q 38.8125 6.390625 42.859375 10.171875 
Q 46.921875 13.96875 46.921875 20.515625 
Q 46.921875 27.09375 42.890625 30.859375 
Q 38.875 34.625 31.78125 34.625 
z
M 21.921875 38.8125 
Q 15.578125 40.375 12.03125 44.71875 
Q 8.5 49.078125 8.5 55.328125 
Q 8.5 64.0625 14.71875 69.140625 
Q 20.953125 74.21875 31.78125 74.21875 
Q 42.671875 74.21875 48.875 69.140625 
Q 55.078125 64.0625 55.078125 55.328125 
Q 55.078125 49.078125 51.53125 44.71875 
Q 48 40.375 41.703125 38.8125 
Q 48.828125 37.15625 52.796875 32.3125 
Q 56.78125 27.484375 56.78125 20.515625 
Q 56.78125 9.90625 50.3125 4.234375 
Q 43.84375 -1.421875 31.78125 -1.421875 
Q 19.734375 -1.421875 13.25 4.234375 
Q 6.78125 9.90625 6.78125 20.515625 
Q 6.78125 27.484375 10.78125 32.3125 
Q 14.796875 37.15625 21.921875 38.8125 
z
M 18.3125 54.390625 
Q 18.3125 48.734375 21.84375 45.5625 
Q 25.390625 42.390625 31.78125 42.390625 
Q 38.140625 42.390625 41.71875 45.5625 
Q 45.3125 48.734375 45.3125 54.390625 
Q 45.3125 60.0625 41.71875 63.234375 
Q 38.140625 66.40625 31.78125 66.40625 
Q 25.390625 66.40625 21.84375 63.234375 
Q 18.3125 60.0625 18.3125 54.390625 
z
" id="DejaVuSans-56"/>
      </defs>
      <g transform="translate(489.900657 316.478437)scale(0.1 -0.1)">
       <use xlink:href="#DejaVuSans-49"/>
       <use x="63.623047" xlink:href="#DejaVuSans-50"/>
       <use x="127.246094" xlink:href="#DejaVuSans-50"/>
       <use x="190.869141" xlink:href="#DejaVuSans-46"/>
       <use x="222.65625" xlink:href="#DejaVuSans-56"/>
      </g>
     </g>
    </g>
    <g id="xtick_5">
     <g id="line2d_9">
      <path clip-path="url(#pdba960257b)" d="M 641.74772 301.88 
L 641.74772 14.76 
" style="fill:none;stroke:#808080;stroke-linecap:square;stroke-width:0.8;"/>
     </g>
     <g id="line2d_10">
      <g>
       <use style="stroke:#000000;stroke-width:0.8;" x="641.74772" xlink:href="#mdba809c35f" y="301.88"/>
      </g>
     </g>
     <g id="text_5">
      <!-- 123.0 -->
      <defs>
       <path d="M 40.578125 39.3125 
Q 47.65625 37.796875 51.625 33 
Q 55.609375 28.21875 55.609375 21.1875 
Q 55.609375 10.40625 48.1875 4.484375 
Q 40.765625 -1.421875 27.09375 -1.421875 
Q 22.515625 -1.421875 17.65625 -0.515625 
Q 12.796875 0.390625 7.625 2.203125 
L 7.625 11.71875 
Q 11.71875 9.328125 16.59375 8.109375 
Q 21.484375 6.890625 26.8125 6.890625 
Q 36.078125 6.890625 40.9375 10.546875 
Q 45.796875 14.203125 45.796875 21.1875 
Q 45.796875 27.640625 41.28125 31.265625 
Q 36.765625 34.90625 28.71875 34.90625 
L 20.21875 34.90625 
L 20.21875 43.015625 
L 29.109375 43.015625 
Q 36.375 43.015625 40.234375 45.921875 
Q 44.09375 48.828125 44.09375 54.296875 
Q 44.09375 59.90625 40.109375 62.90625 
Q 36.140625 65.921875 28.71875 65.921875 
Q 24.65625 65.921875 20.015625 65.03125 
Q 15.375 64.15625 9.8125 62.3125 
L 9.8125 71.09375 
Q 15.4375 72.65625 20.34375 73.4375 
Q 25.25 74.21875 29.59375 74.21875 
Q 40.828125 74.21875 47.359375 69.109375 
Q 53.90625 64.015625 53.90625 55.328125 
Q 53.90625 49.265625 50.4375 45.09375 
Q 46.96875 40.921875 40.578125 39.3125 
z
" id="DejaVuSans-51"/>
       <path d="M 31.78125 66.40625 
Q 24.171875 66.40625 20.328125 58.90625 
Q 16.5 51.421875 16.5 36.375 
Q 16.5 21.390625 20.328125 13.890625 
Q 24.171875 6.390625 31.78125 6.390625 
Q 39.453125 6.390625 43.28125 13.890625 
Q 47.125 21.390625 47.125 36.375 
Q 47.125 51.421875 43.28125 58.90625 
Q 39.453125 66.40625 31.78125 66.40625 
z
M 31.78125 74.21875 
Q 44.046875 74.21875 50.515625 64.515625 
Q 56.984375 54.828125 56.984375 36.375 
Q 56.984375 17.96875 50.515625 8.265625 
Q 44.046875 -1.421875 31.78125 -1.421875 
Q 19.53125 -1.421875 13.0625 8.265625 
Q 6.59375 17.96875 6.59375 36.375 
Q 6.59375 54.828125 13.0625 64.515625 
Q 19.53125 74.21875 31.78125 74.21875 
z
" id="DejaVuSans-48"/>
      </defs>
      <g transform="translate(627.433657 316.478437)scale(0.1 -0.1)">
       <use xlink:href="#DejaVuSans-49"/>
       <use x="63.623047" xlink:href="#DejaVuSans-50"/>
       <use x="127.246094" xlink:href="#DejaVuSans-51"/>
       <use x="190.869141" xlink:href="#DejaVuSans-46"/>
       <use x="222.65625" xlink:href="#DejaVuSans-48"/>
      </g>
     </g>
    </g>
   </g>
   <g id="matplotlib.axis_2">
    <g id="ytick_1">
     <g id="line2d_11">
      <path clip-path="url(#pdba960257b)" d="M 33.73 295.690658 
L 721.395 295.690658 
" style="fill:none;stroke:#808080;stroke-linecap:square;stroke-width:0.8;"/>
     </g>
     <g id="line2d_12">
      <defs>
       <path d="M 0 0 
L -3.5 0 
" id="m42f7538e1a" style="stroke:#000000;stroke-width:0.8;"/>
      </defs>
      <g>
       <use style="stroke:#000000;stroke-width:0.8;" x="33.73" xlink:href="#m42f7538e1a" y="295.690658"/>
      </g>
     </g>
     <g id="text_6">
      <!-- 0 -->
      <g transform="translate(20.3675 299.489877)scale(0.1 -0.1)">
       <use xlink:href="#DejaVuSans-48"/>
      </g>
     </g>
    </g>
    <g id="ytick_2">
     <g id="line2d_13">
      <path clip-path="url(#pdba960257b)" d="M 33.73 258.495094 
L 721.395 258.495094 
" style="fill:none;stroke:#808080;stroke-linecap:square;stroke-width:0.8;"/>
     </g>
     <g id="line2d_14">
      <g>
       <use style="stroke:#000000;stroke-width:0.8;" x="33.73" xlink:href="#m42f7538e1a" y="258.495094"/>
      </g>
     </g>
     <g id="text_7">
      <!-- 2500 -->
      <defs>
       <path d="M 10.796875 72.90625 
L 49.515625 72.90625 
L 49.515625 64.59375 
L 19.828125 64.59375 
L 19.828125 46.734375 
Q 21.96875 47.46875 24.109375 47.828125 
Q 26.265625 48.1875 28.421875 48.1875 
Q 40.625 48.1875 47.75 41.5 
Q 54.890625 34.8125 54.890625 23.390625 
Q 54.890625 11.625 47.5625 5.09375 
Q 40.234375 -1.421875 26.90625 -1.421875 
Q 22.3125 -1.421875 17.546875 -0.640625 
Q 12.796875 0.140625 7.71875 1.703125 
L 7.71875 11.625 
Q 12.109375 9.234375 16.796875 8.0625 
Q 21.484375 6.890625 26.703125 6.890625 
Q 35.15625 6.890625 40.078125 11.328125 
Q 45.015625 15.765625 45.015625 23.390625 
Q 45.015625 31 40.078125 35.4375 
Q 35.15625 39.890625 26.703125 39.890625 
Q 22.75 39.890625 18.8125 39.015625 
Q 14.890625 38.140625 10.796875 36.28125 
z
" id="DejaVuSans-53"/>
      </defs>
      <g transform="translate(1.28 262.294313)scale(0.1 -0.1)">
       <use xlink:href="#DejaVuSans-50"/>
       <use x="63.623047" xlink:href="#DejaVuSans-53"/>
       <use x="127.246094" xlink:href="#DejaVuSans-48"/>
       <use x="190.869141" xlink:href="#DejaVuSans-48"/>
      </g>
     </g>
    </g>
    <g id="ytick_3">
     <g id="line2d_15">
      <path clip-path="url(#pdba960257b)" d="M 33.73 221.299529 
L 721.395 221.299529 
" style="fill:none;stroke:#808080;stroke-linecap:square;stroke-width:0.8;"/>
     </g>
     <g id="line2d_16">
      <g>
       <use style="stroke:#000000;stroke-width:0.8;" x="33.73" xlink:href="#m42f7538e1a" y="221.299529"/>
      </g>
     </g>
     <g id="text_8">
      <!-- 5000 -->
      <g transform="translate(1.28 225.098748)scale(0.1 -0.1)">
       <use xlink:href="#DejaVuSans-53"/>
       <use x="63.623047" xlink:href="#DejaVuSans-48"/>
       <use x="127.246094" xlink:href="#DejaVuSans-48"/>
       <use x="190.869141" xlink:href="#DejaVuSans-48"/>
      </g>
     </g>
    </g>
    <g id="ytick_4">
     <g id="line2d_17">
      <path clip-path="url(#pdba960257b)" d="M 33.73 184.103965 
L 721.395 184.103965 
" style="fill:none;stroke:#808080;stroke-linecap:square;stroke-width:0.8;"/>
     </g>
     <g id="line2d_18">
      <g>
       <use style="stroke:#000000;stroke-width:0.8;" x="33.73" xlink:href="#m42f7538e1a" y="184.103965"/>
      </g>
     </g>
     <g id="text_9">
      <!-- 7500 -->
      <defs>
       <path d="M 8.203125 72.90625 
L 55.078125 72.90625 
L 55.078125 68.703125 
L 28.609375 0 
L 18.3125 0 
L 43.21875 64.59375 
L 8.203125 64.59375 
z
" id="DejaVuSans-55"/>
      </defs>
      <g transform="translate(1.28 187.903184)scale(0.1 -0.1)">
       <use xlink:href="#DejaVuSans-55"/>
       <use x="63.623047" xlink:href="#DejaVuSans-53"/>
       <use x="127.246094" xlink:href="#DejaVuSans-48"/>
       <use x="190.869141" xlink:href="#DejaVuSans-48"/>
      </g>
     </g>
    </g>
    <g id="ytick_5">
     <g id="line2d_19">
      <path clip-path="url(#pdba960257b)" d="M 33.73 146.908401 
L 721.395 146.908401 
" style="fill:none;stroke:#808080;stroke-linecap:square;stroke-width:0.8;"/>
     </g>
     <g id="line2d_20">
      <g>
       <use style="stroke:#000000;stroke-width:0.8;" x="33.73" xlink:href="#m42f7538e1a" y="146.908401"/>
      </g>
     </g>
     <g id="text_10">
      <!-- 10000 -->
      <g transform="translate(-5.0825 150.70762)scale(0.1 -0.1)">
       <use xlink:href="#DejaVuSans-49"/>
       <use x="63.623047" xlink:href="#DejaVuSans-48"/>
       <use x="127.246094" xlink:href="#DejaVuSans-48"/>
       <use x="190.869141" xlink:href="#DejaVuSans-48"/>
       <use x="254.492188" xlink:href="#DejaVuSans-48"/>
      </g>
     </g>
    </g>
    <g id="ytick_6">
     <g id="line2d_21">
      <path clip-path="url(#pdba960257b)" d="M 33.73 109.712837 
L 721.395 109.712837 
" style="fill:none;stroke:#808080;stroke-linecap:square;stroke-width:0.8;"/>
     </g>
     <g id="line2d_22">
      <g>
       <use style="stroke:#000000;stroke-width:0.8;" x="33.73" xlink:href="#m42f7538e1a" y="109.712837"/>
      </g>
     </g>
     <g id="text_11">
      <!-- 12500 -->
      <g transform="translate(-5.0825 113.512055)scale(0.1 -0.1)">
       <use xlink:href="#DejaVuSans-49"/>
       <use x="63.623047" xlink:href="#DejaVuSans-50"/>
       <use x="127.246094" xlink:href="#DejaVuSans-53"/>
       <use x="190.869141" xlink:href="#DejaVuSans-48"/>
       <use x="254.492188" xlink:href="#DejaVuSans-48"/>
      </g>
     </g>
    </g>
    <g id="ytick_7">
     <g id="line2d_23">
      <path clip-path="url(#pdba960257b)" d="M 33.73 72.517272 
L 721.395 72.517272 
" style="fill:none;stroke:#808080;stroke-linecap:square;stroke-width:0.8;"/>
     </g>
     <g id="line2d_24">
      <g>
       <use style="stroke:#000000;stroke-width:0.8;" x="33.73" xlink:href="#m42f7538e1a" y="72.517272"/>
      </g>
     </g>
     <g id="text_12">
      <!-- 15000 -->
      <g transform="translate(-5.0825 76.316491)scale(0.1 -0.1)">
       <use xlink:href="#DejaVuSans-49"/>
       <use x="63.623047" xlink:href="#DejaVuSans-53"/>
       <use x="127.246094" xlink:href="#DejaVuSans-48"/>
       <use x="190.869141" xlink:href="#DejaVuSans-48"/>
       <use x="254.492188" xlink:href="#DejaVuSans-48"/>
      </g>
     </g>
    </g>
    <g id="ytick_8">
     <g id="line2d_25">
      <path clip-path="url(#pdba960257b)" d="M 33.73 35.321708 
L 721.395 35.321708 
" style="fill:none;stroke:#808080;stroke-linecap:square;stroke-width:0.8;"/>
     </g>
     <g id="line2d_26">
      <g>
       <use style="stroke:#000000;stroke-width:0.8;" x="33.73" xlink:href="#m42f7538e1a" y="35.321708"/>
      </g>
     </g>
     <g id="text_13">
      <!-- 17500 -->
      <g transform="translate(-5.0825 39.120927)scale(0.1 -0.1)">
       <use xlink:href="#DejaVuSans-49"/>
       <use x="63.623047" xlink:href="#DejaVuSans-55"/>
       <use x="127.246094" xlink:href="#DejaVuSans-53"/>
       <use x="190.869141" xlink:href="#DejaVuSans-48"/>
       <use x="254.492188" xlink:href="#DejaVuSans-48"/>
      </g>
     </g>
    </g>
   </g>
   <g id="line2d_27">
    <path clip-path="url(#pdba960257b)" d="M 23.156728 295.52789 
L 718.758814 295.52789 
L 718.758814 295.52789 
" style="fill:none;stroke:#00ffff;stroke-linecap:square;"/>
   </g>
   <g id="line2d_28">
    <path clip-path="url(#pdba960257b)" d="M 23.165582 124.159594 
L 34.36761 124.561306 
L 35.577084 124.977896 
L 39.375363 124.620819 
L 39.392578 123.073483 
L 39.807213 123.906664 
L 41.389187 124.174472 
L 44.036686 123.698369 
L 44.079969 123.252022 
L 47.48755 123.028849 
L 48.10942 122.403963 
L 48.553894 121.466635 
L 50.590671 121.719565 
L 51.921307 122.508111 
L 60.416977 123.668612 
L 63.099562 123.653734 
L 63.28827 122.790797 
L 71.291757 122.775919 
L 71.344221 122.954457 
L 74.867388 122.314694 
L 74.878701 122.046886 
L 74.888046 122.195668 
L 75.523033 123.207387 
L 75.938324 122.894945 
L 78.337599 123.058605 
L 79.078334 121.615417 
L 84.340869 121.972495 
L 86.710469 122.686649 
L 94.278991 122.151033 
L 98.265978 122.656893 
L 99.795979 123.132996 
L 99.807456 122.299816 
L 99.862544 122.761041 
L 103.93577 122.329572 
L 104.294333 121.689808 
L 104.794715 121.793956 
L 127.161718 122.522989 
L 127.257958 121.779078 
L 130.156303 121.050045 
L 130.167124 121.139314 
L 130.177453 120.797115 
L 130.196636 122.046886 
L 130.226147 121.347609 
L 132.20718 121.823712 
L 133.410917 122.716406 
L 134.769096 122.880066 
L 151.322029 121.853469 
L 153.295193 122.225424 
L 153.501117 121.972495 
L 153.536366 123.192509 
L 153.558664 122.493232 
L 154.973243 122.061764 
L 158.311144 122.671771 
L 158.888911 122.389085 
L 159.893118 121.392244 
L 170.802163 121.838591 
L 171.514535 121.912982 
L 171.539456 120.75248 
L 175.324618 121.898103 
L 178.371832 122.076642 
L 181.265751 121.868347 
L 184.961068 121.436878 
L 185.598678 122.09152 
L 185.611466 122.835432 
L 190.055224 123.207387 
L 190.082932 122.627136 
L 190.095884 123.162753 
L 201.229216 123.475195 
L 202.114558 122.612258 
L 205.545583 122.299816 
L 205.568865 123.073483 
L 205.580341 122.671771 
L 206.400758 121.630295 
L 209.010711 121.451757 
L 209.023172 121.020288 
L 212.332545 120.975653 
L 212.923264 121.541026 
L 214.040926 121.451757 
L 215.551581 121.615417 
L 235.862788 121.660052 
L 235.944764 121.92786 
L 240.034222 122.121277 
L 240.087178 120.782237 
L 240.097671 121.779078 
L 240.47345 122.240303 
L 240.889724 122.121277 
L 244.252218 122.255181 
L 247.454203 122.493232 
L 252.671651 122.403963 
L 260.94369 122.522989 
L 264.923956 122.463476 
L 264.985602 122.716406 
L 265.002981 122.493232 
L 265.011998 122.314694 
L 267.926247 122.463476 
L 267.938216 122.775919 
L 267.949036 122.165911 
L 269.791038 121.749321 
L 285.992458 122.508111 
L 286.073614 122.374207 
L 295.458725 123.177631 
L 295.483482 123.713247 
L 295.495287 122.954457 
L 295.529716 123.162753 
L 295.552506 121.660052 
L 295.563982 121.808834 
L 296.342919 121.243461 
L 304.481502 122.165911 
L 312.873391 122.061764 
L 313.84743 123.043727 
L 314.440609 123.147874 
L 314.449626 123.043727 
L 314.465038 124.040568 
L 314.965584 123.698369 
L 319.529027 123.951299 
L 319.594771 123.743003 
L 323.472895 123.326413 
L 323.519293 123.207387 
L 325.504425 122.403963 
L 333.203289 122.389085 
L 336.370188 123.088361 
L 338.08775 123.10324 
L 338.101522 123.222266 
L 338.206287 122.761041 
L 347.132332 122.299816 
L 347.142825 122.627136 
L 347.204307 122.478354 
L 351.229495 122.85031 
L 351.254908 123.162753 
L 351.621997 123.757882 
L 352.062208 123.177631 
L 354.403772 123.400804 
L 374.494628 123.385926 
L 374.576768 122.686649 
L 377.469375 122.894945 
L 377.479212 123.385926 
L 377.525611 121.317853 
L 377.534464 122.032007 
L 378.798699 123.118118 
L 378.843622 122.924701 
L 381.016807 122.716406 
L 387.458158 122.240303 
L 388.603527 122.59738 
L 391.826498 122.552745 
L 398.483609 122.686649 
L 399.611272 120.960775 
L 399.627503 121.064923 
L 403.531203 121.734443 
L 403.600063 122.002251 
L 407.83429 122.165911 
L 408.216462 121.689808 
L 409.405279 120.871506 
L 411.344341 121.422 
L 421.848425 120.916141 
L 424.181463 120.960775 
L 426.029204 121.689808 
L 426.042156 121.451757 
L 426.053305 121.481513 
L 429.263159 122.136155 
L 431.579802 122.002251 
L 431.662598 123.237144 
L 435.746809 122.999092 
L 436.075369 122.032007 
L 436.46869 121.987373 
L 438.820747 122.165911 
L 453.233122 122.954457 
L 457.67065 122.403963 
L 459.185239 122.43372 
L 459.224096 122.017129 
L 459.236228 122.656893 
L 459.298366 123.207387 
L 459.311318 122.493232 
L 462.188842 123.430561 
L 462.84547 122.969336 
L 463.405695 121.526148 
L 465.589209 121.987373 
L 467.212007 123.460317 
L 481.093504 123.2669 
L 482.712859 123.058605 
L 487.52305 122.195668 
L 487.541741 121.749321 
L 487.549774 122.820553 
L 487.557808 123.326413 
L 487.674542 122.954457 
L 490.870133 122.493232 
L 490.88079 122.656893 
L 491.84368 122.775919 
L 494.786457 122.493232 
L 495.985602 122.761041 
L 499.619437 122.686649 
L 504.829835 123.653734 
L 506.265072 122.389085 
L 507.649648 122.835432 
L 517.628921 122.225424 
L 517.703191 122.478354 
L 521.104542 122.567624 
L 521.127987 123.177631 
L 521.717723 123.296657 
L 522.624214 123.311535 
L 525.224658 122.493232 
L 534.392532 122.716406 
L 545.261902 121.838591 
L 545.347649 123.028849 
L 548.186315 122.448598 
L 548.216483 120.49955 
L 550.462299 120.395403 
L 552.638435 120.678089 
L 561.498571 120.231742 
L 568.8351 121.25834 
L 569.447789 121.109557 
L 569.456971 120.692967 
L 569.466152 121.198827 
L 574.184038 121.92786 
L 574.212238 122.314694 
L 574.3011 121.645174 
L 577.96297 121.466635 
L 578.607138 121.749321 
L 579.067352 120.931019 
L 587.771077 120.33589 
L 590.621057 120.618576 
L 595.059405 120.514428 
L 595.072521 119.368805 
L 599.148042 120.261499 
L 599.163126 120.618576 
L 602.281331 120.306133 
L 602.292644 120.49955 
L 602.374128 120.201986 
L 605.829091 120.306133 
L 605.839584 121.109557 
L 606.423745 121.362487 
L 607.555343 121.481513 
L 620.389678 120.707845 
L 622.959136 121.987373 
L 626.772662 121.51127 
L 626.809387 121.124436 
L 628.50498 122.389085 
L 628.659587 121.719565 
L 633.546179 121.749321 
L 634.149359 122.121277 
L 634.594817 122.731284 
L 636.717997 122.85031 
L 647.085837 123.01397 
L 654.73781 123.371048 
L 657.055109 122.939579 
L 657.073635 123.891786 
L 658.14539 123.534708 
L 658.20884 122.522989 
L 662.23288 123.088361 
L 662.310594 122.924701 
L 663.354805 121.719565 
L 665.515857 121.779078 
L 671.055963 122.522989 
L 686.428605 122.865188 
L 686.506318 123.252022 
L 690.484452 123.93642 
L 690.536097 124.829114 
L 690.545771 124.546428 
L 690.902694 124.635697 
L 691.341102 124.501793 
L 692.457616 124.992774 
L 704.614173 124.412524 
L 707.00148 124.070324 
L 707.014268 123.638856 
L 707.026237 124.293498 
L 710.102798 123.921542 
L 713.817953 123.802516 
L 713.886977 122.894945 
L 716.640881 123.028849 
L 717.311609 122.880066 
L 721.395 123.445439 
L 721.395 123.445439 
" style="fill:none;stroke:#ff00ff;stroke-linecap:square;"/>
   </g>
   <g id="patch_3">
    <path d="M 33.73 301.88 
L 33.73 14.76 
" style="fill:none;stroke:#000000;stroke-linecap:square;stroke-linejoin:miter;stroke-width:0.8;"/>
   </g>
   <g id="patch_4">
    <path d="M 721.395 301.88 
L 721.395 14.76 
" style="fill:none;stroke:#000000;stroke-linecap:square;stroke-linejoin:miter;stroke-width:0.8;"/>
   </g>
   <g id="patch_5">
    <path d="M 33.73 301.88 
L 721.395 301.88 
" style="fill:none;stroke:#000000;stroke-linecap:square;stroke-linejoin:miter;stroke-width:0.8;"/>
   </g>
   <g id="patch_6">
    <path d="M 33.73 14.76 
L 721.395 14.76 
" style="fill:none;stroke:#000000;stroke-linecap:square;stroke-linejoin:miter;stroke-width:0.8;"/>
   </g>
   <g id="legend_1">
    <g id="patch_7">
     <path d="M 40.73 52.6725 
L 218.997187 52.6725 
Q 220.997187 52.6725 220.997187 50.6725 
L 220.997187 21.76 
Q 220.997187 19.76 218.997187 19.76 
L 40.73 19.76 
Q 38.73 19.76 38.73 21.76 
L 38.73 50.6725 
Q 38.73 52.6725 40.73 52.6725 
z
" style="fill:#ffffff;opacity:0.8;stroke:#cccccc;stroke-linejoin:miter;"/>
    </g>
    <g id="line2d_29">
     <path d="M 42.73 27.858437 
L 62.73 27.858437 
" style="fill:none;stroke:#ff00ff;stroke-linecap:square;"/>
    </g>
    <g id="line2d_30"/>
    <g id="text_14">
     <!-- /sensor_data/accelZ -->
     <defs>
      <path d="M 25.390625 72.90625 
L 33.6875 72.90625 
L 8.296875 -9.28125 
L 0 -9.28125 
z
" id="DejaVuSans-47"/>
      <path d="M 44.28125 53.078125 
L 44.28125 44.578125 
Q 40.484375 46.53125 36.375 47.5 
Q 32.28125 48.484375 27.875 48.484375 
Q 21.1875 48.484375 17.84375 46.4375 
Q 14.5 44.390625 14.5 40.28125 
Q 14.5 37.15625 16.890625 35.375 
Q 19.28125 33.59375 26.515625 31.984375 
L 29.59375 31.296875 
Q 39.15625 29.25 43.1875 25.515625 
Q 47.21875 21.78125 47.21875 15.09375 
Q 47.21875 7.46875 41.1875 3.015625 
Q 35.15625 -1.421875 24.609375 -1.421875 
Q 20.21875 -1.421875 15.453125 -0.5625 
Q 10.6875 0.296875 5.421875 2 
L 5.421875 11.28125 
Q 10.40625 8.6875 15.234375 7.390625 
Q 20.0625 6.109375 24.8125 6.109375 
Q 31.15625 6.109375 34.5625 8.28125 
Q 37.984375 10.453125 37.984375 14.40625 
Q 37.984375 18.0625 35.515625 20.015625 
Q 33.0625 21.96875 24.703125 23.78125 
L 21.578125 24.515625 
Q 13.234375 26.265625 9.515625 29.90625 
Q 5.8125 33.546875 5.8125 39.890625 
Q 5.8125 47.609375 11.28125 51.796875 
Q 16.75 56 26.8125 56 
Q 31.78125 56 36.171875 55.265625 
Q 40.578125 54.546875 44.28125 53.078125 
z
" id="DejaVuSans-115"/>
      <path d="M 56.203125 29.59375 
L 56.203125 25.203125 
L 14.890625 25.203125 
Q 15.484375 15.921875 20.484375 11.0625 
Q 25.484375 6.203125 34.421875 6.203125 
Q 39.59375 6.203125 44.453125 7.46875 
Q 49.3125 8.734375 54.109375 11.28125 
L 54.109375 2.78125 
Q 49.265625 0.734375 44.1875 -0.34375 
Q 39.109375 -1.421875 33.890625 -1.421875 
Q 20.796875 -1.421875 13.15625 6.1875 
Q 5.515625 13.8125 5.515625 26.8125 
Q 5.515625 40.234375 12.765625 48.109375 
Q 20.015625 56 32.328125 56 
Q 43.359375 56 49.78125 48.890625 
Q 56.203125 41.796875 56.203125 29.59375 
z
M 47.21875 32.234375 
Q 47.125 39.59375 43.09375 43.984375 
Q 39.0625 48.390625 32.421875 48.390625 
Q 24.90625 48.390625 20.390625 44.140625 
Q 15.875 39.890625 15.1875 32.171875 
z
" id="DejaVuSans-101"/>
      <path d="M 54.890625 33.015625 
L 54.890625 0 
L 45.90625 0 
L 45.90625 32.71875 
Q 45.90625 40.484375 42.875 44.328125 
Q 39.84375 48.1875 33.796875 48.1875 
Q 26.515625 48.1875 22.3125 43.546875 
Q 18.109375 38.921875 18.109375 30.90625 
L 18.109375 0 
L 9.078125 0 
L 9.078125 54.6875 
L 18.109375 54.6875 
L 18.109375 46.1875 
Q 21.34375 51.125 25.703125 53.5625 
Q 30.078125 56 35.796875 56 
Q 45.21875 56 50.046875 50.171875 
Q 54.890625 44.34375 54.890625 33.015625 
z
" id="DejaVuSans-110"/>
      <path d="M 30.609375 48.390625 
Q 23.390625 48.390625 19.1875 42.75 
Q 14.984375 37.109375 14.984375 27.296875 
Q 14.984375 17.484375 19.15625 11.84375 
Q 23.34375 6.203125 30.609375 6.203125 
Q 37.796875 6.203125 41.984375 11.859375 
Q 46.1875 17.53125 46.1875 27.296875 
Q 46.1875 37.015625 41.984375 42.703125 
Q 37.796875 48.390625 30.609375 48.390625 
z
M 30.609375 56 
Q 42.328125 56 49.015625 48.375 
Q 55.71875 40.765625 55.71875 27.296875 
Q 55.71875 13.875 49.015625 6.21875 
Q 42.328125 -1.421875 30.609375 -1.421875 
Q 18.84375 -1.421875 12.171875 6.21875 
Q 5.515625 13.875 5.515625 27.296875 
Q 5.515625 40.765625 12.171875 48.375 
Q 18.84375 56 30.609375 56 
z
" id="DejaVuSans-111"/>
      <path d="M 41.109375 46.296875 
Q 39.59375 47.171875 37.8125 47.578125 
Q 36.03125 48 33.890625 48 
Q 26.265625 48 22.1875 43.046875 
Q 18.109375 38.09375 18.109375 28.8125 
L 18.109375 0 
L 9.078125 0 
L 9.078125 54.6875 
L 18.109375 54.6875 
L 18.109375 46.1875 
Q 20.953125 51.171875 25.484375 53.578125 
Q 30.03125 56 36.53125 56 
Q 37.453125 56 38.578125 55.875 
Q 39.703125 55.765625 41.0625 55.515625 
z
" id="DejaVuSans-114"/>
      <path d="M 50.984375 -16.609375 
L 50.984375 -23.578125 
L -0.984375 -23.578125 
L -0.984375 -16.609375 
z
" id="DejaVuSans-95"/>
      <path d="M 45.40625 46.390625 
L 45.40625 75.984375 
L 54.390625 75.984375 
L 54.390625 0 
L 45.40625 0 
L 45.40625 8.203125 
Q 42.578125 3.328125 38.25 0.953125 
Q 33.9375 -1.421875 27.875 -1.421875 
Q 17.96875 -1.421875 11.734375 6.484375 
Q 5.515625 14.40625 5.515625 27.296875 
Q 5.515625 40.1875 11.734375 48.09375 
Q 17.96875 56 27.875 56 
Q 33.9375 56 38.25 53.625 
Q 42.578125 51.265625 45.40625 46.390625 
z
M 14.796875 27.296875 
Q 14.796875 17.390625 18.875 11.75 
Q 22.953125 6.109375 30.078125 6.109375 
Q 37.203125 6.109375 41.296875 11.75 
Q 45.40625 17.390625 45.40625 27.296875 
Q 45.40625 37.203125 41.296875 42.84375 
Q 37.203125 48.484375 30.078125 48.484375 
Q 22.953125 48.484375 18.875 42.84375 
Q 14.796875 37.203125 14.796875 27.296875 
z
" id="DejaVuSans-100"/>
      <path d="M 34.28125 27.484375 
Q 23.390625 27.484375 19.1875 25 
Q 14.984375 22.515625 14.984375 16.5 
Q 14.984375 11.71875 18.140625 8.90625 
Q 21.296875 6.109375 26.703125 6.109375 
Q 34.1875 6.109375 38.703125 11.40625 
Q 43.21875 16.703125 43.21875 25.484375 
L 43.21875 27.484375 
z
M 52.203125 31.203125 
L 52.203125 0 
L 43.21875 0 
L 43.21875 8.296875 
Q 40.140625 3.328125 35.546875 0.953125 
Q 30.953125 -1.421875 24.3125 -1.421875 
Q 15.921875 -1.421875 10.953125 3.296875 
Q 6 8.015625 6 15.921875 
Q 6 25.140625 12.171875 29.828125 
Q 18.359375 34.515625 30.609375 34.515625 
L 43.21875 34.515625 
L 43.21875 35.40625 
Q 43.21875 41.609375 39.140625 45 
Q 35.0625 48.390625 27.6875 48.390625 
Q 23 48.390625 18.546875 47.265625 
Q 14.109375 46.140625 10.015625 43.890625 
L 10.015625 52.203125 
Q 14.9375 54.109375 19.578125 55.046875 
Q 24.21875 56 28.609375 56 
Q 40.484375 56 46.34375 49.84375 
Q 52.203125 43.703125 52.203125 31.203125 
z
" id="DejaVuSans-97"/>
      <path d="M 18.3125 70.21875 
L 18.3125 54.6875 
L 36.8125 54.6875 
L 36.8125 47.703125 
L 18.3125 47.703125 
L 18.3125 18.015625 
Q 18.3125 11.328125 20.140625 9.421875 
Q 21.96875 7.515625 27.59375 7.515625 
L 36.8125 7.515625 
L 36.8125 0 
L 27.59375 0 
Q 17.1875 0 13.234375 3.875 
Q 9.28125 7.765625 9.28125 18.015625 
L 9.28125 47.703125 
L 2.6875 47.703125 
L 2.6875 54.6875 
L 9.28125 54.6875 
L 9.28125 70.21875 
z
" id="DejaVuSans-116"/>
      <path d="M 48.78125 52.59375 
L 48.78125 44.1875 
Q 44.96875 46.296875 41.140625 47.34375 
Q 37.3125 48.390625 33.40625 48.390625 
Q 24.65625 48.390625 19.8125 42.84375 
Q 14.984375 37.3125 14.984375 27.296875 
Q 14.984375 17.28125 19.8125 11.734375 
Q 24.65625 6.203125 33.40625 6.203125 
Q 37.3125 6.203125 41.140625 7.25 
Q 44.96875 8.296875 48.78125 10.40625 
L 48.78125 2.09375 
Q 45.015625 0.34375 40.984375 -0.53125 
Q 36.96875 -1.421875 32.421875 -1.421875 
Q 20.0625 -1.421875 12.78125 6.34375 
Q 5.515625 14.109375 5.515625 27.296875 
Q 5.515625 40.671875 12.859375 48.328125 
Q 20.21875 56 33.015625 56 
Q 37.15625 56 41.109375 55.140625 
Q 45.0625 54.296875 48.78125 52.59375 
z
" id="DejaVuSans-99"/>
      <path d="M 9.421875 75.984375 
L 18.40625 75.984375 
L 18.40625 0 
L 9.421875 0 
z
" id="DejaVuSans-108"/>
      <path d="M 5.609375 72.90625 
L 62.890625 72.90625 
L 62.890625 65.375 
L 16.796875 8.296875 
L 64.015625 8.296875 
L 64.015625 0 
L 4.5 0 
L 4.5 7.515625 
L 50.59375 64.59375 
L 5.609375 64.59375 
z
" id="DejaVuSans-90"/>
     </defs>
     <g transform="translate(70.73 31.358437)scale(0.1 -0.1)">
      <use xlink:href="#DejaVuSans-47"/>
      <use x="33.691406" xlink:href="#DejaVuSans-115"/>
      <use x="85.791016" xlink:href="#DejaVuSans-101"/>
      <use x="147.314453" xlink:href="#DejaVuSans-110"/>
      <use x="210.693359" xlink:href="#DejaVuSans-115"/>
      <use x="262.792969" xlink:href="#DejaVuSans-111"/>
      <use x="323.974609" xlink:href="#DejaVuSans-114"/>
      <use x="365.087891" xlink:href="#DejaVuSans-95"/>
      <use x="415.087891" xlink:href="#DejaVuSans-100"/>
      <use x="478.564453" xlink:href="#DejaVuSans-97"/>
      <use x="539.84375" xlink:href="#DejaVuSans-116"/>
      <use x="579.052734" xlink:href="#DejaVuSans-97"/>
      <use x="640.332031" xlink:href="#DejaVuSans-47"/>
      <use x="674.023438" xlink:href="#DejaVuSans-97"/>
      <use x="735.302734" xlink:href="#DejaVuSans-99"/>
      <use x="790.283203" xlink:href="#DejaVuSans-99"/>
      <use x="845.263672" xlink:href="#DejaVuSans-101"/>
      <use x="906.787109" xlink:href="#DejaVuSans-108"/>
      <use x="934.570312" xlink:href="#DejaVuSans-90"/>
     </g>
    </g>
    <g id="line2d_31">
     <path d="M 42.73 42.814687 
L 62.73 42.814687 
" style="fill:none;stroke:#00ffff;stroke-linecap:square;"/>
    </g>
    <g id="line2d_32"/>
    <g id="text_15">
     <!-- /sensor_data/battery_voltage -->
     <defs>
      <path d="M 48.6875 27.296875 
Q 48.6875 37.203125 44.609375 42.84375 
Q 40.53125 48.484375 33.40625 48.484375 
Q 26.265625 48.484375 22.1875 42.84375 
Q 18.109375 37.203125 18.109375 27.296875 
Q 18.109375 17.390625 22.1875 11.75 
Q 26.265625 6.109375 33.40625 6.109375 
Q 40.53125 6.109375 44.609375 11.75 
Q 48.6875 17.390625 48.6875 27.296875 
z
M 18.109375 46.390625 
Q 20.953125 51.265625 25.265625 53.625 
Q 29.59375 56 35.59375 56 
Q 45.5625 56 51.78125 48.09375 
Q 58.015625 40.1875 58.015625 27.296875 
Q 58.015625 14.40625 51.78125 6.484375 
Q 45.5625 -1.421875 35.59375 -1.421875 
Q 29.59375 -1.421875 25.265625 0.953125 
Q 20.953125 3.328125 18.109375 8.203125 
L 18.109375 0 
L 9.078125 0 
L 9.078125 75.984375 
L 18.109375 75.984375 
z
" id="DejaVuSans-98"/>
      <path d="M 32.171875 -5.078125 
Q 28.375 -14.84375 24.75 -17.8125 
Q 21.140625 -20.796875 15.09375 -20.796875 
L 7.90625 -20.796875 
L 7.90625 -13.28125 
L 13.1875 -13.28125 
Q 16.890625 -13.28125 18.9375 -11.515625 
Q 21 -9.765625 23.484375 -3.21875 
L 25.09375 0.875 
L 2.984375 54.6875 
L 12.5 54.6875 
L 29.59375 11.921875 
L 46.6875 54.6875 
L 56.203125 54.6875 
z
" id="DejaVuSans-121"/>
      <path d="M 2.984375 54.6875 
L 12.5 54.6875 
L 29.59375 8.796875 
L 46.6875 54.6875 
L 56.203125 54.6875 
L 35.6875 0 
L 23.484375 0 
z
" id="DejaVuSans-118"/>
      <path d="M 45.40625 27.984375 
Q 45.40625 37.75 41.375 43.109375 
Q 37.359375 48.484375 30.078125 48.484375 
Q 22.859375 48.484375 18.828125 43.109375 
Q 14.796875 37.75 14.796875 27.984375 
Q 14.796875 18.265625 18.828125 12.890625 
Q 22.859375 7.515625 30.078125 7.515625 
Q 37.359375 7.515625 41.375 12.890625 
Q 45.40625 18.265625 45.40625 27.984375 
z
M 54.390625 6.78125 
Q 54.390625 -7.171875 48.1875 -13.984375 
Q 42 -20.796875 29.203125 -20.796875 
Q 24.46875 -20.796875 20.265625 -20.09375 
Q 16.0625 -19.390625 12.109375 -17.921875 
L 12.109375 -9.1875 
Q 16.0625 -11.328125 19.921875 -12.34375 
Q 23.78125 -13.375 27.78125 -13.375 
Q 36.625 -13.375 41.015625 -8.765625 
Q 45.40625 -4.15625 45.40625 5.171875 
L 45.40625 9.625 
Q 42.625 4.78125 38.28125 2.390625 
Q 33.9375 0 27.875 0 
Q 17.828125 0 11.671875 7.65625 
Q 5.515625 15.328125 5.515625 27.984375 
Q 5.515625 40.671875 11.671875 48.328125 
Q 17.828125 56 27.875 56 
Q 33.9375 56 38.28125 53.609375 
Q 42.625 51.21875 45.40625 46.390625 
L 45.40625 54.6875 
L 54.390625 54.6875 
z
" id="DejaVuSans-103"/>
     </defs>
     <g transform="translate(70.73 46.314687)scale(0.1 -0.1)">
      <use xlink:href="#DejaVuSans-47"/>
      <use x="33.691406" xlink:href="#DejaVuSans-115"/>
      <use x="85.791016" xlink:href="#DejaVuSans-101"/>
      <use x="147.314453" xlink:href="#DejaVuSans-110"/>
      <use x="210.693359" xlink:href="#DejaVuSans-115"/>
      <use x="262.792969" xlink:href="#DejaVuSans-111"/>
      <use x="323.974609" xlink:href="#DejaVuSans-114"/>
      <use x="365.087891" xlink:href="#DejaVuSans-95"/>
      <use x="415.087891" xlink:href="#DejaVuSans-100"/>
      <use x="478.564453" xlink:href="#DejaVuSans-97"/>
      <use x="539.84375" xlink:href="#DejaVuSans-116"/>
      <use x="579.052734" xlink:href="#DejaVuSans-97"/>
      <use x="640.332031" xlink:href="#DejaVuSans-47"/>
      <use x="674.023438" xlink:href="#DejaVuSans-98"/>
      <use x="737.5" xlink:href="#DejaVuSans-97"/>
      <use x="798.779297" xlink:href="#DejaVuSans-116"/>
      <use x="837.988281" xlink:href="#DejaVuSans-116"/>
      <use x="877.197266" xlink:href="#DejaVuSans-101"/>
      <use x="938.720703" xlink:href="#DejaVuSans-114"/>
      <use x="979.833984" xlink:href="#DejaVuSans-121"/>
      <use x="1039.013672" xlink:href="#DejaVuSans-95"/>
      <use x="1089.013672" xlink:href="#DejaVuSans-118"/>
      <use x="1148.193359" xlink:href="#DejaVuSans-111"/>
      <use x="1209.375" xlink:href="#DejaVuSans-108"/>
      <use x="1237.158203" xlink:href="#DejaVuSans-116"/>
      <use x="1276.367188" xlink:href="#DejaVuSans-97"/>
      <use x="1337.646484" xlink:href="#DejaVuSans-103"/>
      <use x="1401.123047" xlink:href="#DejaVuSans-101"/>
     </g>
    </g>
   </g>
  </g>
 </g>
 <defs>
  <clipPath id="pdba960257b">
   <rect height="287.12" width="687.665" x="33.73" y="14.76"/>
  </clipPath>
 </defs>
</svg>
